<svg width="150" height="142" viewBox="0 0 150 142" fill="none" xmlns="http://www.w3.org/2000/svg">
<path d="M51.8182 141.489L38.8636 119.929L14.3182 114.539L16.7045 89.6099L0 70.7447L16.7045 51.8794L14.3182 26.9504L38.8636 21.5603L51.8182 0L75 9.7695L98.1818 0L111.136 21.5603L135.682 26.9504L133.295 51.8794L150 70.7447L133.295 89.6099L135.682 114.539L111.136 119.929L98.1818 141.489L75 131.72L51.8182 141.489ZM57.6136 124.309L75 116.897L92.7273 124.309L102.273 108.138L121.023 103.759L119.318 84.8936L131.932 70.7447L119.318 56.2589L121.023 37.3936L102.273 33.3511L92.3864 17.1809L75 24.5922L57.2727 17.1809L47.7273 33.3511L28.9773 37.3936L30.6818 56.2589L18.0682 70.7447L30.6818 84.8936L28.9773 104.096L47.7273 108.138L57.6136 124.309ZM67.8409 94.6631L106.364 56.5957L96.8182 46.8262L67.8409 75.461L53.1818 61.3121L43.6364 70.7447L67.8409 94.6631Z" fill="#541FE7"/>
</svg>
