<svg width="16" height="17" viewBox="0 0 16 17" fill="none" xmlns="http://www.w3.org/2000/svg">
<g clip-path="url(#clip0_523_1303)">
<path d="M7.99949 2.16969C9.13016 2.16969 10.1808 2.45236 11.1515 3.01769C12.0902 3.57236 12.8368 4.31902 13.3915 5.25769C13.9568 6.22835 14.2395 7.27902 14.2395 8.40969C14.2395 9.54035 13.9568 10.591 13.3915 11.5617C12.8368 12.5004 12.0902 13.247 11.1515 13.8017C10.1808 14.367 9.13016 14.6497 7.99949 14.6497C6.86883 14.6497 5.81816 14.367 4.84749 13.8017C3.90883 13.247 3.16216 12.5004 2.60749 11.5617C2.04216 10.591 1.75949 9.54035 1.75949 8.40969C1.75949 7.27902 2.04216 6.22835 2.60749 5.25769C3.16216 4.31902 3.90883 3.57236 4.84749 3.01769C5.81816 2.45236 6.86883 2.16969 7.99949 2.16969ZM7.99949 0.889688C6.96483 0.889688 5.99416 1.08436 5.08749 1.47369C4.18083 1.86302 3.38083 2.40436 2.68749 3.09769C2.00483 3.75902 1.46616 4.55102 1.07149 5.47369C0.676826 6.39635 0.479492 7.37502 0.479492 8.40969C0.479492 9.44435 0.674159 10.415 1.06349 11.3217C1.45283 12.2284 1.99416 13.0284 2.68749 13.7217C3.34883 14.4044 4.14083 14.943 5.06349 15.3377C5.98616 15.7324 6.96483 15.9297 7.99949 15.9297C9.03416 15.9297 10.0048 15.735 10.9115 15.3457C11.8182 14.9564 12.6182 14.415 13.3115 13.7217C13.9942 13.0604 14.5328 12.2684 14.9275 11.3457C15.3222 10.423 15.5195 9.44435 15.5195 8.40969C15.5195 7.37502 15.3248 6.40436 14.9355 5.49769C14.5462 4.59102 14.0048 3.79102 13.3115 3.09769C12.6502 2.41502 11.8582 1.87636 10.9355 1.48169C10.0128 1.08702 9.03416 0.889688 7.99949 0.889688ZM7.99949 4.60169C7.31683 4.60169 6.68216 4.77236 6.09549 5.11369C5.50883 5.45502 5.04483 5.91902 4.70349 6.50569C4.36216 7.09235 4.19149 7.72702 4.19149 8.40969C4.19149 9.09235 4.36216 9.72702 4.70349 10.3137C5.04483 10.9004 5.50883 11.3644 6.09549 11.7057C6.68216 12.047 7.31683 12.2177 7.99949 12.2177C8.68216 12.2177 9.31683 12.047 9.90349 11.7057C10.4902 11.3644 10.9542 10.9004 11.2955 10.3137C11.6368 9.72702 11.8075 9.09235 11.8075 8.40969C11.8075 7.72702 11.6368 7.09235 11.2955 6.50569C10.9542 5.91902 10.4902 5.45502 9.90349 5.11369C9.31683 4.77236 8.68216 4.60169 7.99949 4.60169Z" fill="#797776"/>
</g>
<defs>
<clipPath id="clip0_523_1303">
<rect width="16" height="16" fill="white" transform="matrix(1 0 0 -1 0 16.4097)"/>
</clipPath>
</defs>
</svg>
