<svg width="32" height="32" viewBox="0 0 32 32" fill="none" xmlns="http://www.w3.org/2000/svg">
<mask id="mask0_809_1699" style="mask-type:alpha" maskUnits="userSpaceOnUse" x="0" y="0" width="32" height="32">
<rect width="32" height="32" fill="#ffffff"/>
</mask>
<g mask="url(#mask0_809_1699)">
<path d="M15.9997 15.9999C14.533 15.9999 13.2775 15.4777 12.233 14.4333C11.1886 13.3888 10.6663 12.1333 10.6663 10.6666C10.6663 9.19992 11.1886 7.94436 12.233 6.89992C13.2775 5.85547 14.533 5.33325 15.9997 5.33325C17.4663 5.33325 18.7219 5.85547 19.7663 6.89992C20.8108 7.94436 21.333 9.19992 21.333 10.6666C21.333 12.1333 20.8108 13.3888 19.7663 14.4333C18.7219 15.4777 17.4663 15.9999 15.9997 15.9999ZM5.33301 26.6666V22.9333C5.33301 22.1777 5.52745 21.4833 5.91634 20.8499C6.30523 20.2166 6.8219 19.7333 7.46634 19.3999C8.84412 18.711 10.2441 18.1944 11.6663 17.8499C13.0886 17.5055 14.533 17.3333 15.9997 17.3333C17.4663 17.3333 18.9108 17.5055 20.333 17.8499C21.7552 18.1944 23.1552 18.711 24.533 19.3999C25.1775 19.7333 25.6941 20.2166 26.083 20.8499C26.4719 21.4833 26.6663 22.1777 26.6663 22.9333V26.6666H5.33301Z" fill="#ffffff"/>
</g>
</svg>
